HIERARCHY
ROOT Pelvis
{
	OFFSET 0.000000 0.000000 0.000000
	CHANNELS 6 Xposition Yposition Zposition Xrotation Yrotation Zrotation
	JOINT LeftUpLeg_virtual
	{
		OFFSET 0.000000 0.000000 0.000000
		CHANNELS 3 Xrotation Yrotation Zrotation
		JOINT LeftUpLeg
		{
			OFFSET 18.735201 -5.666702 -4.541200
			CHANNELS 3 Xrotation Yrotation Zrotation
			JOINT LeftLeg
			{
				OFFSET -0.021200 -31.938179 0.493100
				CHANNELS 3 Xrotation Yrotation Zrotation
				JOINT LeftFoot
				{
					OFFSET 0.021200 -31.938179 -4.336299
					CHANNELS 3 Xrotation Yrotation Zrotation
					JOINT LeftToeBase
					{
						OFFSET 0.943001 -26.722000 15.023500
						CHANNELS 3 Xrotation Yrotation Zrotation
						End Site
						{
							OFFSET 0 0 0
						}
					}
				}
			}
		}
	}
	JOINT RightUpLeg_virtual
	{
		OFFSET 0.000000 0.000000 0.000000
		CHANNELS 3 Xrotation Yrotation Zrotation
		JOINT RightUpLeg
		{
			OFFSET -18.735201 -5.666702 -4.541200
			CHANNELS 3 Xrotation Yrotation Zrotation
			JOINT RightLeg
			{
				OFFSET 0.018946 -31.938133 0.493100
				CHANNELS 3 Xrotation Yrotation Zrotation
				JOINT RightFoot
				{
					OFFSET -0.018946 -31.938126 -4.336299
					CHANNELS 3 Xrotation Yrotation Zrotation
					JOINT RightToeBase
					{
						OFFSET -0.943001 -26.722004 15.023500
						CHANNELS 3 Xrotation Yrotation Zrotation
						End Site
						{
							OFFSET 0 0 0
						}
					}
				}
			}
		}
	}
	JOINT Hips_virtual
	{
		OFFSET 0.000000 0.000000 0.000000
		CHANNELS 3 Xrotation Yrotation Zrotation
		JOINT Hips
		{
			OFFSET -0.000000 -0.000000 -0.000000
			CHANNELS 3 Xrotation Yrotation Zrotation
			JOINT Spine
			{
				OFFSET 0.000000 10.199997 -0.299500
				CHANNELS 3 Xrotation Yrotation Zrotation
				JOINT Spine1
				{
					OFFSET 0.000000 11.900002 -1.516600
					CHANNELS 3 Xrotation Yrotation Zrotation
					JOINT Spine2
					{
						OFFSET 0.000000 13.600006 -2.842500
						CHANNELS 3 Xrotation Yrotation Zrotation
						JOINT Neck_virtual
						{
							OFFSET 0.000000 0.000000 0.000000
							CHANNELS 3 Xrotation Yrotation Zrotation
							JOINT Neck
							{
								OFFSET 0.000000 9.624100 -2.890100
								CHANNELS 3 Xrotation Yrotation Zrotation
								JOINT Head
								{
									OFFSET 0.000000 14.068802 -1.351900
									CHANNELS 3 Xrotation Yrotation Zrotation
									End Site
									{
										OFFSET 0 0 0
									}
								}
							}
						}
						JOINT LeftShoulder_virtual
						{
							OFFSET 0.000000 0.000000 0.000000
							CHANNELS 3 Xrotation Yrotation Zrotation
							JOINT LeftShoulder
							{
								OFFSET 15.263000 10.923401 -0.547700
								CHANNELS 3 Xrotation Yrotation Zrotation
								JOINT LeftArm
								{
									OFFSET 25.438599 -2.830597 -13.032500
									CHANNELS 3 Xrotation Yrotation Zrotation
									JOINT LeftForeArm
									{
										OFFSET 29.960503 0.000000 0.000000
										CHANNELS 3 Xrotation Yrotation Zrotation
										JOINT LeftHand
										{
											OFFSET 27.849251 0.000000 0.000000
											CHANNELS 3 Xrotation Yrotation Zrotation
											End Site
											{
												OFFSET 0 0 0
											}
										}
									}
								}
							}
						}
						JOINT RightShoulder_virtual
						{
							OFFSET 0.000000 0.000000 0.000000
							CHANNELS 3 Xrotation Yrotation Zrotation
							JOINT RightShoulder
							{
								OFFSET -15.263000 10.923401 -0.547700
								CHANNELS 3 Xrotation Yrotation Zrotation
								JOINT RightArm
								{
									OFFSET -25.438599 -2.830597 -13.032500
									CHANNELS 3 Xrotation Yrotation Zrotation
									JOINT RightForeArm
									{
										OFFSET -29.960503 0.000000 0.000000
										CHANNELS 3 Xrotation Yrotation Zrotation
										JOINT RightHand
										{
											OFFSET -27.849251 0.000000 0.000000
											CHANNELS 3 Xrotation Yrotation Zrotation
											End Site
											{
												OFFSET 0 0 0
											}
										}
									}
								}
							}
						}
					}
				}
			}
		}
	}
}
MOTION
Frames: 12
Frame Time: 0.03333333
-10.495155 128.893738 -4.505268 0.000000 0.000000 0.000000 9.942534 -12.121368 -1.092146 -152.500994 -35.728364 24.650049 117.608208 -20.835960 -4.722225 44.185163 -25.816633 -7.009436 0.000000 0.000000 0.000000 9.942534 -12.121368 -1.092146 -68.819244 52.529817 -72.395060 128.425356 39.497823 6.431207 -0.805121 12.600311 54.708801 0.000000 0.000000 0.000000 9.942534 -12.121368 -1.092146 0.000000 -0.000001 0.000000 33.270948 6.853160 1.637705 7.016420 1.371150 0.932971 0.000000 0.000000 0.000000 7.016132 1.356909 0.957106 3.203649 1.348335 0.823127 0.000000 0.000000 0.000000 7.016132 1.356909 0.957106 0.333780 -3.623989 3.511466 -39.710949 20.403435 24.454227 -0.000001 -1.659872 0.000012 0.000000 0.000000 0.000000 7.016132 1.356909 0.957106 -3.152576 -6.176011 -32.353527 -43.155317 11.870930 -9.722796 0.000004 13.107170 0.000001 0.000000 0.000000 0.000000 
-10.247944 127.870461 -4.244671 0.000000 0.000000 0.000000 10.346148 -11.684752 -0.421565 -152.354418 -33.106009 26.395847 117.777815 -19.065641 -6.115704 45.795285 -26.817816 -2.594480 0.000000 0.000000 0.000000 10.346148 -11.684752 -0.421565 -66.430912 50.808305 -72.910446 127.175281 38.836585 7.327611 -2.112105 11.800531 53.585593 0.000000 0.000000 0.000000 10.346148 -11.684752 -0.421565 0.000000 0.000000 0.000000 32.883871 6.536560 1.015817 6.928085 1.411406 0.809339 0.000000 0.000000 0.000000 6.927401 1.400736 0.834282 3.267576 1.309226 0.864657 0.000000 0.000000 0.000000 6.927401 1.400736 0.834282 0.260216 -3.373977 3.577372 -40.196053 20.677971 26.508060 -0.000005 -2.492642 0.000003 0.000000 0.000000 0.000000 6.927401 1.400736 0.834282 -2.438248 -4.287072 -32.305555 -40.704038 7.760223 -13.687632 0.000002 15.033129 0.000001 0.000000 0.000000 0.000000 
-9.982113 126.457260 -3.962231 0.000000 0.000000 0.000000 10.314152 -11.698727 -0.201423 -151.291613 -30.429029 27.255662 117.959853 -17.561270 -6.859314 47.118661 -25.381587 1.274534 0.000000 0.000000 0.000000 10.314152 -11.698727 -0.201423 -65.899052 48.908014 -70.671073 126.301713 37.753188 7.623849 -4.277380 10.665661 52.452772 0.000000 0.000000 0.000000 10.314152 -11.698727 -0.201423 0.000000 0.000001 0.000000 32.132096 6.479622 0.566867 6.762703 1.484584 0.721722 0.000000 0.000000 0.000000 6.761549 1.477280 0.747488 3.226178 1.295542 0.857359 0.000000 0.000000 0.000000 6.761549 1.477280 0.747488 0.150306 -2.880988 3.833599 -39.803347 20.644056 27.958483 -0.000001 -3.001040 0.000002 0.000000 0.000000 0.000000 6.761549 1.477280 0.747488 -1.787087 -2.322999 -32.141972 -38.691526 3.637148 -16.996661 0.000004 17.122620 0.000001 0.000000 0.000000 0.000000 
-9.652424 124.717453 -3.761650 0.000000 0.000000 0.000000 10.010311 -11.881381 -0.231170 -149.484414 -27.807194 27.562368 118.144678 -16.179567 -7.072206 47.314780 -23.155600 3.953308 0.000000 0.000000 0.000000 10.010311 -11.881381 -0.231170 -66.047123 46.828699 -66.941188 125.706763 36.406814 7.464793 -7.029562 9.075014 51.277399 0.000000 0.000000 0.000000 10.010311 -11.881381 -0.231170 0.000000 0.000000 0.000000 31.101382 6.603200 0.269815 6.538970 1.568813 0.665330 0.000000 0.000000 0.000000 6.537237 1.564634 0.691662 3.142613 1.297385 0.834946 0.000000 0.000000 0.000000 6.537237 1.564634 0.691662 0.039206 -2.385780 4.168917 -38.968333 20.585632 29.044403 -0.000001 -3.374195 -0.000005 0.000000 0.000000 0.000000 6.537237 1.564634 0.691662 -1.195180 -0.396597 -31.763334 -37.135137 -0.211832 -19.628958 0.000003 19.145498 -0.000011 0.000000 0.000000 0.000000 
-9.240839 122.695801 -3.754311 0.000000 0.000000 0.000000 9.331429 -12.014391 -0.511957 -147.475232 -25.204921 27.102156 118.539436 -14.864853 -6.507580 45.991967 -21.259252 5.134666 0.000000 0.000000 0.000000 9.331429 -12.014391 -0.511957 -65.892297 44.636150 -62.648790 125.664279 35.133366 6.812545 -10.606748 6.497150 50.050930 0.000000 0.000000 0.000000 9.331429 -12.014391 -0.511957 0.000000 0.000001 0.000000 29.917048 6.940392 0.202075 6.286037 1.654822 0.662579 0.000000 0.000000 0.000000 6.283577 1.652843 0.689203 3.074696 1.313313 0.815654 0.000000 0.000000 0.000000 6.283577 1.652843 0.689203 -0.029583 -2.134308 4.558657 -37.997999 20.763760 30.040524 0.000006 -3.667782 0.000004 0.000000 0.000000 0.000000 6.283577 1.652843 0.689203 -0.769569 1.209646 -31.233772 -36.055872 -3.151197 -21.148518 0.000008 20.611976 -0.000008 0.000000 0.000000 0.000000 
-8.834232 120.458054 -3.932846 0.000000 0.000000 0.000000 8.593074 -12.106813 -0.881512 -144.863422 -22.846481 26.565647 118.850346 -13.678481 -5.708808 43.276116 -19.867917 5.529167 0.000000 0.000000 0.000000 8.593074 -12.106813 -0.881512 -65.934801 41.881173 -57.604832 125.583984 33.328550 5.871957 -14.212230 3.797055 48.723527 0.000000 0.000000 0.000000 8.593074 -12.106813 -0.881512 0.000001 0.000000 0.000000 28.554992 7.334348 0.276668 5.995017 1.728299 0.680313 0.000000 0.000000 0.000000 5.991697 1.728369 0.706515 3.023569 1.331850 0.814772 0.000000 0.000000 0.000000 5.991697 1.728369 0.706515 -0.058448 -2.072650 4.852713 -37.181866 21.291346 30.847498 0.000003 -3.951675 0.000010 0.000000 0.000000 0.000000 5.991697 1.728369 0.706515 -0.388917 2.653077 -30.259241 -35.260083 -5.616371 -21.941762 -0.000003 21.810553 0.000012 0.000000 0.000000 0.000000 
-8.533762 118.139053 -4.425945 0.000000 0.000000 0.000000 8.138182 -12.074123 -1.102927 -141.688641 -21.028564 26.586892 119.153688 -12.698238 -5.094857 38.409104 -20.334672 5.681647 0.000000 0.000000 0.000000 8.138182 -12.074123 -1.102927 -65.874005 38.141805 -52.192252 125.055873 30.686971 4.755357 -17.561537 1.338201 47.744706 0.000000 0.000000 0.000000 8.138182 -12.074123 -1.102927 0.000000 0.000001 0.000000 26.995139 7.649288 0.420324 5.660313 1.770684 0.696394 0.000000 0.000000 0.000000 5.655898 1.773449 0.721041 3.026699 1.336174 0.874399 0.000000 0.000000 0.000000 5.655898 1.773449 0.721041 -0.011738 -2.375034 4.857350 -37.133239 22.332058 31.767845 -0.000003 -4.300282 -0.000015 0.000000 0.000000 0.000000 5.655898 1.773449 0.721041 0.005538 3.995536 -28.539003 -34.872159 -7.698970 -22.337210 0.000002 22.803229 0.000010 0.000000 0.000000 0.000000 
-8.351360 115.715157 -4.893963 0.000000 0.000000 0.000000 7.782073 -12.023915 -1.322189 -136.789100 -19.360240 27.117711 118.661778 -12.092736 -4.693745 33.015550 -20.170693 5.578545 0.000000 0.000000 0.000000 7.782073 -12.023915 -1.322189 -66.290490 33.929115 -46.364256 123.599677 27.118950 3.718785 -18.915574 0.097933 46.134670 0.000000 0.000000 0.000000 7.782073 -12.023915 -1.322189 0.000000 0.000000 0.000000 25.370343 7.866685 0.581190 5.300980 1.785471 0.700158 0.000000 0.000000 0.000000 5.295677 1.790812 0.722058 3.033180 1.341064 0.932557 0.000000 0.000000 0.000000 5.295677 1.790812 0.722058 0.037774 -2.601990 4.679294 -37.240261 23.924097 31.952800 -0.000001 -4.755649 0.000003 0.000000 0.000000 0.000000 5.295677 1.790812 0.722058 0.391408 5.297111 -26.175518 -34.806699 -9.994414 -22.418691 -0.000004 23.779763 0.000012 0.000000 0.000000 0.000000 
-8.347954 113.160522 -5.074432 0.000000 0.000000 0.000000 7.535140 -12.157431 -1.609838 -129.212549 -17.662668 28.330310 116.503192 -12.021610 -4.685284 29.001502 -16.560654 5.537431 0.000000 0.000000 0.000000 7.535140 -12.157431 -1.609838 -68.183770 29.491261 -39.729534 120.550571 22.376683 3.036450 -15.562120 1.597776 42.514212 0.000000 0.000000 0.000000 7.535140 -12.157431 -1.609838 0.000001 0.000000 0.000000 23.759083 7.953979 0.646507 4.923698 1.770348 0.669446 0.000000 0.000000 0.000000 4.918085 1.777819 0.687033 3.008652 1.352647 0.948615 0.000000 0.000000 0.000000 4.918085 1.777819 0.687033 0.035531 -2.400259 4.301958 -37.165634 26.260826 30.740735 0.000003 -5.427641 0.000002 0.000000 0.000000 0.000000 4.918085 1.777819 0.687033 0.824903 6.754558 -22.951160 -35.206838 -13.178504 -22.729066 0.000005 25.085717 0.000001 0.000000 0.000000 0.000000 
-8.374500 110.455078 -4.995564 0.000000 0.000000 0.000000 7.154358 -12.207632 -1.844065 -119.832172 -15.606545 29.521898 112.875822 -11.982764 -4.903952 25.630153 -11.533865 4.953563 0.000000 0.000000 0.000000 7.154358 -12.207632 -1.844065 -68.909874 24.768371 -33.919177 116.189277 18.007345 2.744634 -10.673131 3.835705 37.365137 0.000000 0.000000 0.000000 7.154358 -12.207632 -1.844065 0.000001 0.000000 0.000000 22.330313 7.886720 0.593394 4.559985 1.724171 0.616618 0.000000 0.000000 0.000000 4.554689 1.732794 0.628859 2.940537 1.380150 0.900466 0.000000 0.000000 0.000000 4.554689 1.732794 0.628859 -0.019940 -1.684836 3.901626 -36.168341 29.133243 27.600130 0.000000 -6.187305 0.000015 0.000000 0.000000 0.000000 4.554689 1.732794 0.628859 1.105544 8.057194 -19.527007 -35.743107 -17.150354 -22.459796 -0.000005 26.315737 0.000004 0.000000 0.000000 0.000000 
-8.236813 107.533455 -4.518185 0.000000 0.000000 0.000000 6.356792 -12.000864 -2.062082 -109.053116 -12.999909 30.112501 107.697678 -11.983986 -5.373399 22.950621 -5.360257 3.000768 0.000000 0.000000 0.000000 6.356792 -12.000864 -2.062082 -68.029306 20.323605 -29.152279 111.014309 14.553572 2.939825 -5.585002 5.860397 30.027970 0.000000 0.000000 0.000000 6.356792 -12.000864 -2.062082 0.000000 0.000000 0.000000 21.257371 7.683615 0.517332 4.237579 1.645039 0.546325 0.000000 0.000000 0.000000 4.233552 1.653027 0.552186 2.789790 1.443015 0.717263 0.000000 0.000000 0.000000 4.233552 1.653027 0.552186 -0.171470 -0.073336 3.674389 -33.131854 32.306330 21.251502 0.000002 -6.995139 0.000006 0.000000 0.000000 0.000000 4.233552 1.653027 0.552186 1.225768 8.991197 -16.395017 -36.104571 -22.295641 -21.151272 -0.000003 27.342668 0.000003 0.000000 0.000000 0.000000 
-8.082516 104.430893 -3.957695 0.000000 0.000000 0.000000 5.269499 -11.391187 -2.215068 -98.059865 -10.140516 29.605271 101.282082 -11.008709 -5.772002 21.222105 -0.180166 0.655824 0.000000 0.000000 0.000000 5.269499 -11.391187 -2.215068 -64.456222 16.264490 -25.776987 105.040182 12.425077 3.348589 -2.633110 6.992562 24.069619 0.000000 0.000000 0.000000 5.269499 -11.391187 -2.215068 0.000000 0.000000 0.000000 20.542076 7.281420 0.376934 3.974470 1.532902 0.459531 0.000000 0.000000 0.000000 3.972169 1.538983 0.459185 2.600705 1.514685 0.504059 0.000000 0.000000 0.000000 3.972169 1.538983 0.459185 -0.353146 1.896862 3.551195 -28.495978 35.091190 12.455929 0.000001 -7.692647 -0.000000 0.000000 0.000000 0.000000 3.972169 1.538983 0.459185 1.183198 9.231957 -13.874699 -35.358646 -27.932900 -17.884956 -0.000001 27.677573 0.000001 0.000000 0.000000 0.000000 
